<?xml version="1.0" encoding="UTF-8" standalone="no"?>
<!DOCTYPE svg PUBLIC "-//W3C//DTD SVG 1.1//EN" "http://www.w3.org/Graphics/SVG/1.1/DTD/svg11.dtd">
<svg width="100%" height="100%" viewBox="0 0 300 47" version="1.1" xmlns="http://www.w3.org/2000/svg" xmlns:xlink="http://www.w3.org/1999/xlink" xml:space="preserve" xmlns:serif="http://www.serif.com/" style="fill-rule:evenodd;clip-rule:evenodd;stroke-linejoin:round;stroke-miterlimit:2;">
    <g transform="matrix(0.398366,0,0,0.398366,0.347181,3.5817)">
        <g>
            <path d="M55.875,32.382L95.2,12.702L95.2,64.701L50,87.298L4.8,64.701L4.8,12.702L28.273,24.445L20.797,31.111L13.8,27.553L13.706,60.097L49.939,76.215L80.887,61.665L50.317,46.121L57.982,39.287L95.057,57.741L58.359,31.139L55.876,32.382L55.875,32.382ZM43.886,32.382L43.93,32.277L44.139,32.382L43.886,32.382Z" style="fill:white;"/>
            <g transform="matrix(0.0775617,0,0,0.0790442,21.1247,15.7577)">
                <path d="M349.4,44.6C355.3,30.9 350.9,14.9 338.8,6.1C326.7,-2.7 310.2,-1.9 298.9,7.9L42.9,231.9C32.9,240.7 29.3,254.8 34,267.2C38.7,279.6 50.7,288 64,288L175.5,288L98.6,467.4C92.7,481.1 97.1,497.1 109.2,505.9C121.3,514.7 137.8,513.9 149.1,504.1L405.1,280.1C415.1,271.3 418.7,257.2 414,244.8C409.3,232.4 397.4,224.1 384,224.1L272.5,224.1L349.4,44.6Z" style="fill:white;fill-rule:nonzero;"/>
            </g>
        </g>
    </g>
    <g transform="matrix(1.86539,0,0,1.86539,-92.4952,-31.3387)">
        <g>
            <path d="M77.13,31.072C77.434,31.072 77.662,31.028 77.814,30.94C77.966,30.852 78.042,30.708 78.042,30.508C78.042,30.372 78.006,30.264 77.934,30.184C77.862,30.104 77.734,30.024 77.55,29.944L76.278,29.356C75.806,29.14 75.442,28.852 75.186,28.492C74.93,28.132 74.802,27.608 74.802,26.92C74.802,26.04 75.032,25.382 75.492,24.946C75.952,24.51 76.714,24.288 77.778,24.28C78.218,24.28 78.618,24.3 78.978,24.34C79.338,24.38 79.626,24.422 79.842,24.466C80.058,24.51 80.166,24.532 80.166,24.532L79.926,26.464C79.926,26.464 79.828,26.452 79.632,26.428C79.436,26.404 79.194,26.382 78.906,26.362C78.618,26.342 78.338,26.332 78.066,26.332C77.778,26.332 77.56,26.374 77.412,26.458C77.264,26.542 77.19,26.7 77.19,26.932C77.19,27.06 77.246,27.166 77.358,27.25C77.47,27.334 77.626,27.42 77.826,27.508L78.846,27.952C79.39,28.192 79.786,28.49 80.034,28.846C80.282,29.202 80.406,29.708 80.406,30.364C80.406,31.252 80.174,31.936 79.71,32.416C79.246,32.896 78.482,33.14 77.418,33.148C76.89,33.148 76.398,33.114 75.942,33.046C75.486,32.978 75.082,32.9 74.73,32.812L74.97,30.88C74.97,30.88 75.068,30.896 75.264,30.928C75.46,30.96 75.722,30.992 76.05,31.024C76.378,31.056 76.738,31.072 77.13,31.072Z" style="fill:white;fill-rule:nonzero;"/>
            <path d="M84.114,33.148C83.642,33.148 83.212,33.096 82.824,32.992C82.436,32.888 82.102,32.704 81.822,32.44C81.542,32.176 81.326,31.812 81.174,31.348C81.022,30.884 80.946,30.292 80.946,29.572C80.946,28.404 81.164,27.522 81.6,26.926C82.036,26.33 82.738,26.032 83.706,26.032C84.586,26.032 85.224,26.274 85.62,26.758C86.016,27.242 86.214,27.96 86.214,28.912C86.214,29.136 86.206,29.366 86.19,29.602C86.174,29.838 86.146,30.052 86.106,30.244L83.238,30.244C83.286,30.732 83.422,31.058 83.646,31.222C83.87,31.386 84.246,31.468 84.774,31.468C84.958,31.468 85.148,31.452 85.344,31.42C85.54,31.388 85.73,31.352 85.914,31.312L85.914,32.944C85.634,33 85.34,33.048 85.032,33.088C84.724,33.128 84.418,33.148 84.114,33.148ZM83.79,27.616C83.47,27.616 83.282,28.048 83.226,28.912L84.21,28.912C84.21,28.736 84.204,28.548 84.192,28.348C84.18,28.148 84.144,27.976 84.084,27.832C84.024,27.688 83.926,27.616 83.79,27.616Z" style="fill:white;fill-rule:nonzero;"/>
            <path d="M88.482,33.148C88.162,33.148 87.862,33.066 87.582,32.902C87.302,32.738 87.074,32.5 86.898,32.188C86.722,31.876 86.634,31.5 86.634,31.06C86.634,30.372 86.876,29.852 87.36,29.5C87.844,29.148 88.47,28.972 89.238,28.972L89.754,28.972L89.754,28.312C89.754,28.08 89.674,27.922 89.514,27.838C89.354,27.754 89.15,27.712 88.902,27.712C88.598,27.712 88.306,27.74 88.026,27.796C87.746,27.852 87.466,27.932 87.186,28.036L87.186,26.356C87.546,26.276 87.92,26.202 88.308,26.134C88.696,26.066 89.086,26.032 89.478,26.032C89.918,26.032 90.322,26.086 90.69,26.194C91.058,26.302 91.354,26.496 91.578,26.776C91.802,27.056 91.914,27.456 91.914,27.976L91.914,33.028L90.042,33.028L89.898,32.512C89.698,32.728 89.474,32.888 89.226,32.992C88.978,33.096 88.73,33.148 88.482,33.148ZM89.322,31.564C89.482,31.564 89.626,31.492 89.754,31.348L89.754,30.16L89.598,30.16C89.358,30.16 89.154,30.218 88.986,30.334C88.818,30.45 88.734,30.624 88.734,30.856C88.734,31.08 88.794,31.254 88.914,31.378C89.034,31.502 89.17,31.564 89.322,31.564Z" style="fill:white;fill-rule:nonzero;"/>
            <path d="M92.814,33.028L92.814,26.128L94.65,26.128L94.89,27.088L94.914,27.088C95.042,26.688 95.268,26.396 95.592,26.212C95.916,26.028 96.326,25.98 96.822,26.068L96.822,28.108C96.51,28.108 96.188,28.128 95.856,28.168C95.524,28.208 95.23,28.264 94.974,28.336L94.974,33.028L92.814,33.028Z" style="fill:white;fill-rule:nonzero;"/>
            <path d="M100.278,33.148C99.846,33.148 99.446,33.092 99.078,32.98C98.71,32.868 98.388,32.68 98.112,32.416C97.836,32.152 97.622,31.788 97.47,31.324C97.318,30.86 97.242,30.276 97.242,29.572C97.242,28.884 97.332,28.312 97.512,27.856C97.692,27.4 97.938,27.04 98.25,26.776C98.562,26.512 98.914,26.322 99.306,26.206C99.698,26.09 100.11,26.032 100.542,26.032C100.822,26.032 101.078,26.052 101.31,26.092C101.542,26.132 101.782,26.192 102.03,26.272L102.03,28.972L100.794,28.972L100.554,27.724C100.194,27.724 99.924,27.86 99.744,28.132C99.564,28.404 99.474,28.892 99.474,29.596C99.474,30.1 99.538,30.488 99.666,30.76C99.794,31.032 99.974,31.216 100.206,31.312C100.438,31.408 100.714,31.442 101.034,31.414C101.354,31.386 101.702,31.324 102.078,31.228L102.078,32.932C101.83,33.004 101.538,33.058 101.202,33.094C100.866,33.13 100.558,33.148 100.278,33.148Z" style="fill:white;fill-rule:nonzero;"/>
            <path d="M104.982,26.476C105.414,26.18 105.87,26.032 106.35,26.032C106.902,26.032 107.36,26.204 107.724,26.548C108.088,26.892 108.27,27.408 108.27,28.096L108.27,33.028L106.11,33.028L106.11,28.444C106.11,27.956 105.89,27.712 105.45,27.712C105.274,27.712 105.118,27.756 104.982,27.844L104.982,33.028L102.822,33.028L102.822,24.28L104.982,23.968L104.982,26.476Z" style="fill:white;fill-rule:nonzero;"/>
            <path d="M112.35,33.028L112.35,26.032L111.69,24.388L115.146,24.388C115.866,24.388 116.462,24.486 116.934,24.682C117.406,24.878 117.758,25.208 117.99,25.672C118.222,26.136 118.338,26.768 118.338,27.568C118.338,28.672 118.074,29.468 117.546,29.956C117.018,30.444 116.218,30.688 115.146,30.688L114.69,30.688L114.69,33.028L112.35,33.028ZM114.69,28.972C115.074,28.972 115.36,28.868 115.548,28.66C115.736,28.452 115.83,28.08 115.83,27.544C115.83,27.136 115.796,26.828 115.728,26.62C115.66,26.412 115.544,26.27 115.38,26.194C115.216,26.118 114.986,26.08 114.69,26.08L114.69,28.972Z" style="fill:white;fill-rule:nonzero;"/>
            <path d="M121.722,33.148C121.01,33.148 120.436,33.028 120,32.788C119.564,32.548 119.248,32.166 119.052,31.642C118.856,31.118 118.758,30.432 118.758,29.584C118.758,28.736 118.856,28.052 119.052,27.532C119.248,27.012 119.564,26.632 120,26.392C120.436,26.152 121.01,26.032 121.722,26.032C122.442,26.032 123.018,26.152 123.45,26.392C123.882,26.632 124.196,27.012 124.392,27.532C124.588,28.052 124.686,28.736 124.686,29.584C124.686,30.432 124.588,31.118 124.392,31.642C124.196,32.166 123.882,32.548 123.45,32.788C123.018,33.028 122.442,33.148 121.722,33.148ZM121.71,31.456C121.982,31.456 122.174,31.31 122.286,31.018C122.398,30.726 122.454,30.252 122.454,29.596C122.454,28.932 122.398,28.454 122.286,28.162C122.174,27.87 121.982,27.724 121.71,27.724C121.446,27.724 121.26,27.87 121.152,28.162C121.044,28.454 120.99,28.932 120.99,29.596C120.99,30.252 121.044,30.726 121.152,31.018C121.26,31.31 121.446,31.456 121.71,31.456Z" style="fill:white;fill-rule:nonzero;"/>
            <path d="M125.406,34.828L125.406,26.128L127.242,26.128L127.422,26.68C127.606,26.472 127.828,26.312 128.088,26.2C128.348,26.088 128.63,26.032 128.934,26.032C129.374,26.032 129.736,26.126 130.02,26.314C130.304,26.502 130.528,26.76 130.692,27.088C130.856,27.416 130.972,27.786 131.04,28.198C131.108,28.61 131.142,29.044 131.142,29.5C131.142,30.812 130.938,31.748 130.53,32.308C130.122,32.868 129.526,33.148 128.742,33.148C128.39,33.148 127.998,33.076 127.566,32.932L127.566,34.516L125.406,34.828ZM128.058,31.468C128.426,31.468 128.66,31.3 128.76,30.964C128.86,30.628 128.91,30.12 128.91,29.44C128.91,28.808 128.862,28.362 128.766,28.102C128.67,27.842 128.49,27.712 128.226,27.712C128.146,27.712 128.05,27.728 127.938,27.76C127.826,27.792 127.702,27.844 127.566,27.916L127.566,31.396C127.75,31.444 127.914,31.468 128.058,31.468Z" style="fill:white;fill-rule:nonzero;"/>
            <path d="M135.138,32.56C134.914,32.744 134.674,32.888 134.418,32.992C134.162,33.096 133.906,33.148 133.65,33.148C133.122,33.148 132.682,32.976 132.33,32.632C131.978,32.288 131.802,31.772 131.802,31.084L131.802,26.128L133.962,26.128L133.962,30.712C133.962,31.2 134.158,31.444 134.55,31.444C134.702,31.444 134.842,31.4 134.97,31.312L134.97,26.128L137.13,26.128L137.13,33.028L135.294,33.028L135.138,32.56Z" style="fill:white;fill-rule:nonzero;"/>
            <path d="M138.09,34.828L138.09,26.128L139.926,26.128L140.106,26.68C140.29,26.472 140.512,26.312 140.772,26.2C141.032,26.088 141.314,26.032 141.618,26.032C142.058,26.032 142.42,26.126 142.704,26.314C142.988,26.502 143.212,26.76 143.376,27.088C143.54,27.416 143.656,27.786 143.724,28.198C143.792,28.61 143.826,29.044 143.826,29.5C143.826,30.812 143.622,31.748 143.214,32.308C142.806,32.868 142.21,33.148 141.426,33.148C141.074,33.148 140.682,33.076 140.25,32.932L140.25,34.516L138.09,34.828ZM140.742,31.468C141.11,31.468 141.344,31.3 141.444,30.964C141.544,30.628 141.594,30.12 141.594,29.44C141.594,28.808 141.546,28.362 141.45,28.102C141.354,27.842 141.174,27.712 140.91,27.712C140.83,27.712 140.734,27.728 140.622,27.76C140.51,27.792 140.386,27.844 140.25,27.916L140.25,31.396C140.434,31.444 140.598,31.468 140.742,31.468Z" style="fill:white;fill-rule:nonzero;"/>
            <path d="M152.874,26.308L151.29,26.308L151.29,33.028L148.938,33.028L148.938,26.308L147.186,26.308L147.186,24.388L153.234,24.388L152.874,26.308Z" style="fill:white;fill-rule:nonzero;"/>
            <path d="M155.754,26.476C156.186,26.18 156.642,26.032 157.122,26.032C157.674,26.032 158.132,26.204 158.496,26.548C158.86,26.892 159.042,27.408 159.042,28.096L159.042,33.028L156.882,33.028L156.882,28.444C156.882,27.956 156.662,27.712 156.222,27.712C156.046,27.712 155.89,27.756 155.754,27.844L155.754,33.028L153.594,33.028L153.594,24.28L155.754,23.968L155.754,26.476Z" style="fill:white;fill-rule:nonzero;"/>
            <path d="M163.218,32.56C162.994,32.744 162.754,32.888 162.498,32.992C162.242,33.096 161.986,33.148 161.73,33.148C161.202,33.148 160.762,32.976 160.41,32.632C160.058,32.288 159.882,31.772 159.882,31.084L159.882,26.128L162.042,26.128L162.042,30.712C162.042,31.2 162.238,31.444 162.63,31.444C162.782,31.444 162.922,31.4 163.05,31.312L163.05,26.128L165.21,26.128L165.21,33.028L163.374,33.028L163.218,32.56Z" style="fill:white;fill-rule:nonzero;"/>
            <path d="M168.162,26.596C168.634,26.22 169.146,26.032 169.698,26.032C170.25,26.032 170.708,26.204 171.072,26.548C171.436,26.892 171.618,27.408 171.618,28.096L171.618,33.028L169.458,33.028L169.458,28.444C169.458,27.956 169.238,27.712 168.798,27.712C168.622,27.712 168.466,27.756 168.33,27.844L168.33,33.028L166.17,33.028L166.17,26.128L168.006,26.128L168.162,26.596Z" style="fill:white;fill-rule:nonzero;"/>
            <path d="M174.486,33.148C174.046,33.148 173.684,33.054 173.4,32.866C173.116,32.678 172.892,32.42 172.728,32.092C172.564,31.764 172.448,31.394 172.38,30.982C172.312,30.57 172.278,30.136 172.278,29.68C172.278,28.368 172.484,27.432 172.896,26.872C173.308,26.312 173.902,26.032 174.678,26.032C175.03,26.032 175.422,26.104 175.854,26.248L175.854,24.292L178.014,23.968L178.014,33.028L176.178,33.028L175.998,32.5C175.822,32.7 175.602,32.858 175.338,32.974C175.074,33.09 174.79,33.148 174.486,33.148ZM175.194,31.468C175.282,31.468 175.382,31.452 175.494,31.42C175.606,31.388 175.726,31.336 175.854,31.264L175.854,27.784C175.678,27.736 175.514,27.712 175.362,27.712C174.994,27.712 174.76,27.88 174.66,28.216C174.56,28.552 174.51,29.06 174.51,29.74C174.51,30.372 174.558,30.818 174.654,31.078C174.75,31.338 174.93,31.468 175.194,31.468Z" style="fill:white;fill-rule:nonzero;"/>
            <path d="M181.902,33.148C181.43,33.148 181,33.096 180.612,32.992C180.224,32.888 179.89,32.704 179.61,32.44C179.33,32.176 179.114,31.812 178.962,31.348C178.81,30.884 178.734,30.292 178.734,29.572C178.734,28.404 178.952,27.522 179.388,26.926C179.824,26.33 180.526,26.032 181.494,26.032C182.374,26.032 183.012,26.274 183.408,26.758C183.804,27.242 184.002,27.96 184.002,28.912C184.002,29.136 183.994,29.366 183.978,29.602C183.962,29.838 183.934,30.052 183.894,30.244L181.026,30.244C181.074,30.732 181.21,31.058 181.434,31.222C181.658,31.386 182.034,31.468 182.562,31.468C182.746,31.468 182.936,31.452 183.132,31.42C183.328,31.388 183.518,31.352 183.702,31.312L183.702,32.944C183.422,33 183.128,33.048 182.82,33.088C182.512,33.128 182.206,33.148 181.902,33.148ZM181.578,27.616C181.258,27.616 181.07,28.048 181.014,28.912L181.998,28.912C181.998,28.736 181.992,28.548 181.98,28.348C181.968,28.148 181.932,27.976 181.872,27.832C181.812,27.688 181.714,27.616 181.578,27.616Z" style="fill:white;fill-rule:nonzero;"/>
            <path d="M184.662,33.028L184.662,26.128L186.498,26.128L186.738,27.088L186.762,27.088C186.89,26.688 187.116,26.396 187.44,26.212C187.764,26.028 188.174,25.98 188.67,26.068L188.67,28.108C188.358,28.108 188.036,28.128 187.704,28.168C187.372,28.208 187.078,28.264 186.822,28.336L186.822,33.028L184.662,33.028Z" style="fill:white;fill-rule:nonzero;"/>
            <path d="M189.39,33.028L189.39,26.032L188.73,24.388L192.33,24.388C193.298,24.388 194.002,24.582 194.442,24.97C194.882,25.358 195.102,25.88 195.102,26.536C195.102,26.96 195.022,27.344 194.862,27.688C194.702,28.032 194.398,28.32 193.95,28.552L193.95,28.576C194.494,28.752 194.88,29.012 195.108,29.356C195.336,29.7 195.45,30.152 195.45,30.712C195.45,31.456 195.178,32.028 194.634,32.428C194.09,32.828 193.262,33.028 192.15,33.028L189.39,33.028ZM191.73,27.94L191.838,27.94C192.198,27.94 192.46,27.87 192.624,27.73C192.788,27.59 192.87,27.344 192.87,26.992C192.87,26.632 192.788,26.382 192.624,26.242C192.46,26.102 192.198,26.032 191.838,26.032L191.73,26.032L191.73,27.94ZM191.73,31.444L191.85,31.444C192.25,31.444 192.544,31.37 192.732,31.222C192.92,31.074 193.014,30.812 193.014,30.436C193.014,30.052 192.92,29.786 192.732,29.638C192.544,29.49 192.25,29.416 191.85,29.416L191.73,29.416L191.73,31.444Z" style="fill:white;fill-rule:nonzero;"/>
            <path d="M198.942,33.148C198.23,33.148 197.656,33.028 197.22,32.788C196.784,32.548 196.468,32.166 196.272,31.642C196.076,31.118 195.978,30.432 195.978,29.584C195.978,28.736 196.076,28.052 196.272,27.532C196.468,27.012 196.784,26.632 197.22,26.392C197.656,26.152 198.23,26.032 198.942,26.032C199.662,26.032 200.238,26.152 200.67,26.392C201.102,26.632 201.416,27.012 201.612,27.532C201.808,28.052 201.906,28.736 201.906,29.584C201.906,30.432 201.808,31.118 201.612,31.642C201.416,32.166 201.102,32.548 200.67,32.788C200.238,33.028 199.662,33.148 198.942,33.148ZM198.93,31.456C199.202,31.456 199.394,31.31 199.506,31.018C199.618,30.726 199.674,30.252 199.674,29.596C199.674,28.932 199.618,28.454 199.506,28.162C199.394,27.87 199.202,27.724 198.93,27.724C198.666,27.724 198.48,27.87 198.372,28.162C198.264,28.454 198.21,28.932 198.21,29.596C198.21,30.252 198.264,30.726 198.372,31.018C198.48,31.31 198.666,31.456 198.93,31.456Z" style="fill:white;fill-rule:nonzero;"/>
            <path d="M204.786,33.028L202.626,33.028L202.626,24.256L204.786,23.968L204.786,33.028Z" style="fill:white;fill-rule:nonzero;"/>
            <path d="M208.446,26.128L209.754,26.128L209.754,27.748L208.446,27.748L208.446,30.736C208.446,30.96 208.504,31.124 208.62,31.228C208.736,31.332 208.922,31.384 209.178,31.384C209.306,31.384 209.418,31.378 209.514,31.366C209.61,31.354 209.69,31.34 209.754,31.324L209.754,32.92C209.562,32.984 209.36,33.038 209.148,33.082C208.936,33.126 208.722,33.148 208.506,33.148C207.77,33.148 207.216,32.99 206.844,32.674C206.472,32.358 206.286,31.792 206.286,30.976L206.286,27.748L205.386,27.748L205.386,26.128L206.286,26.128L206.286,24.616L208.446,24.616L208.446,26.128Z" style="fill:white;fill-rule:nonzero;"/>
        </g>
    </g>
</svg>
